<svg width="369" height="642" viewBox="0 0 369 642" fill="none" xmlns="http://www.w3.org/2000/svg">
<g id="Group-5">
<g id="Group-6">
<g id="Combined-Shape">
<g id="path-16-link">
<path id="path-16" fill-rule="evenodd" clip-rule="evenodd" d="M306.802 0C325.689 0 341 15.3265 341 34.2328V607.767C341 626.673 325.689 642 306.802 642L198.682 642C198.607 641.94 198.52 641.896 198.423 641.871V641.871L197.472 641.633C197.418 641.619 197.363 641.613 197.308 641.613V641.613H169.208C169.163 641.613 169.119 641.617 169.076 641.626V641.626L167.739 641.892C167.645 641.91 167.559 641.948 167.484 642L63.1977 642C44.3108 642 29 626.673 29 607.767V34.2328C29 15.3265 44.3108 0 63.1977 0H306.802Z" fill="white"/>
</g>
<g id="path-16-link_2">
<path id="path-16_2" d="M306.802 0C325.689 0 341 15.3265 341 34.2328V607.767C341 626.673 325.689 642 306.802 642L198.682 642C198.607 641.94 198.52 641.896 198.423 641.871V641.871L197.472 641.633C197.418 641.619 197.363 641.613 197.308 641.613V641.613H169.208C169.163 641.613 169.119 641.617 169.076 641.626V641.626L167.739 641.892C167.645 641.91 167.559 641.948 167.484 642L63.1977 642C44.3108 642 29 626.673 29 607.767V34.2328C29 15.3265 44.3108 0 63.1977 0H306.802Z" fill="black"/>
</g>
</g>
<g id="Group-9 Clipped">
<mask id="mask0_0_405" style="mask-type:luminance" maskUnits="userSpaceOnUse" x="29" y="0" width="312" height="642">
<path id="path-16_3" fill-rule="evenodd" clip-rule="evenodd" d="M306.802 0C325.689 0 341 15.3265 341 34.2328V607.767C341 626.673 325.689 642 306.802 642L198.682 642C198.607 641.94 198.52 641.896 198.423 641.871V641.871L197.472 641.633C197.418 641.619 197.363 641.613 197.308 641.613V641.613H169.208C169.163 641.613 169.119 641.617 169.076 641.626V641.626L167.739 641.892C167.645 641.91 167.559 641.948 167.484 642L63.1977 642C44.3108 642 29 626.673 29 607.767V34.2328C29 15.3265 44.3108 0 63.1977 0H306.802Z" fill="white"/>
</mask>
<g mask="url(#mask0_0_405)">
<g id="Group-9">
<g id="Group">
<g id="Path-3" style="mix-blend-mode:overlay">
<path d="M298.032 635.333L298.788 633.549C314.642 640.28 333.207 632.035 355.039 609.842L356.418 611.201C334.09 633.899 314.817 642.458 298.032 635.333Z" fill="black"/>
</g>
<g id="Path-3-Copy" style="mix-blend-mode:overlay">
<path d="M74.2245 635.333L73.4688 633.549C57.6143 640.28 39.0493 632.035 17.2179 609.842L15.8387 611.201C38.1666 633.899 57.4398 642.458 74.2245 635.333Z" fill="black"/>
</g>
</g>
</g>
</g>
</g>
<g id="Group-9-Copy Clipped">
<mask id="mask1_0_405" style="mask-type:luminance" maskUnits="userSpaceOnUse" x="29" y="0" width="312" height="642">
<path id="path-16_4" fill-rule="evenodd" clip-rule="evenodd" d="M306.802 0C325.689 0 341 15.3265 341 34.2328V607.767C341 626.673 325.689 642 306.802 642L198.682 642C198.607 641.94 198.52 641.896 198.423 641.871V641.871L197.472 641.633C197.418 641.619 197.363 641.613 197.308 641.613V641.613H169.208C169.163 641.613 169.119 641.617 169.076 641.626V641.626L167.739 641.892C167.645 641.91 167.559 641.948 167.484 642L63.1977 642C44.3108 642 29 626.673 29 607.767V34.2328C29 15.3265 44.3108 0 63.1977 0H306.802Z" fill="white"/>
</mask>
<g mask="url(#mask1_0_405)">
<g id="Group-9-Copy">
<g id="Group_2">
<g id="Path-3_2" style="mix-blend-mode:overlay">
<path d="M298.032 11.3166L298.788 13.1001C314.642 6.36975 333.207 14.6142 355.039 36.8075L356.418 35.4483C334.09 12.7502 314.817 4.19138 298.032 11.3166Z" fill="black"/>
</g>
<g id="Path-3-Copy_2" style="mix-blend-mode:overlay">
<path d="M74.2245 11.3166L73.4688 13.1001C57.6143 6.36975 39.0493 14.6142 17.2179 36.8075L15.8387 35.4483C38.1666 12.7502 57.4398 4.19138 74.2245 11.3166Z" fill="black"/>
</g>
</g>
</g>
</g>
</g>
<g id="Rectangle-6-Copy Clipped">
<mask id="mask2_0_405" style="mask-type:luminance" maskUnits="userSpaceOnUse" x="29" y="0" width="312" height="642">
<path id="path-16_5" fill-rule="evenodd" clip-rule="evenodd" d="M306.802 0C325.689 0 341 15.3265 341 34.2328V607.767C341 626.673 325.689 642 306.802 642L198.682 642C198.607 641.94 198.52 641.896 198.423 641.871V641.871L197.472 641.633C197.418 641.619 197.363 641.613 197.308 641.613V641.613H169.208C169.163 641.613 169.119 641.617 169.076 641.626V641.626L167.739 641.892C167.645 641.91 167.559 641.948 167.484 642L63.1977 642C44.3108 642 29 626.673 29 607.767V34.2328C29 15.3265 44.3108 0 63.1977 0H306.802Z" fill="white"/>
</mask>
<g mask="url(#mask2_0_405)">
<path id="Rectangle-6-Copy" d="M92.484 636.963V641.612H89.387V636.963H92.484Z" fill="url(#paint0_linear_0_405)"/>
</g>
</g>
<g id="Rectangle-6 Clipped">
<mask id="mask3_0_405" style="mask-type:luminance" maskUnits="userSpaceOnUse" x="29" y="0" width="312" height="642">
<path id="path-16_6" fill-rule="evenodd" clip-rule="evenodd" d="M306.802 0C325.689 0 341 15.3265 341 34.2328V607.767C341 626.673 325.689 642 306.802 642L198.682 642C198.607 641.94 198.52 641.896 198.423 641.871V641.871L197.472 641.633C197.418 641.619 197.363 641.613 197.308 641.613V641.613H169.208C169.163 641.613 169.119 641.617 169.076 641.626V641.626L167.739 641.892C167.645 641.91 167.559 641.948 167.484 642L63.1977 642C44.3108 642 29 626.673 29 607.767V34.2328C29 15.3265 44.3108 0 63.1977 0H306.802Z" fill="white"/>
</mask>
<g mask="url(#mask3_0_405)">
<path id="Rectangle-6" d="M336.742 56.1799H341.387V59.2794H336.742V56.1799Z" fill="url(#paint1_linear_0_405)"/>
</g>
</g>
<g id="Rectangle-6-Copy-4 Clipped">
<mask id="mask4_0_405" style="mask-type:luminance" maskUnits="userSpaceOnUse" x="29" y="0" width="312" height="642">
<path id="path-16_7" fill-rule="evenodd" clip-rule="evenodd" d="M306.802 0C325.689 0 341 15.3265 341 34.2328V607.767C341 626.673 325.689 642 306.802 642L198.682 642C198.607 641.94 198.52 641.896 198.423 641.871V641.871L197.472 641.633C197.418 641.619 197.363 641.613 197.308 641.613V641.613H169.208C169.163 641.613 169.119 641.617 169.076 641.626V641.626L167.739 641.892C167.645 641.91 167.559 641.948 167.484 642L63.1977 642C44.3108 642 29 626.673 29 607.767V34.2328C29 15.3265 44.3108 0 63.1977 0H306.802Z" fill="white"/>
</mask>
<g mask="url(#mask4_0_405)">
<path id="Rectangle-6-Copy-4" d="M285.645 4.64923V0.000146866H288.742V4.64923H285.645Z" fill="url(#paint2_linear_0_405)"/>
</g>
</g>
<g id="Rectangle-6-Copy-3 Clipped">
<mask id="mask5_0_405" style="mask-type:luminance" maskUnits="userSpaceOnUse" x="29" y="0" width="312" height="642">
<path id="path-16_8" fill-rule="evenodd" clip-rule="evenodd" d="M306.802 0C325.689 0 341 15.3265 341 34.2328V607.767C341 626.673 325.689 642 306.802 642L198.682 642C198.607 641.94 198.52 641.896 198.423 641.871V641.871L197.472 641.633C197.418 641.619 197.363 641.613 197.308 641.613V641.613H169.208C169.163 641.613 169.119 641.617 169.076 641.626V641.626L167.739 641.892C167.645 641.91 167.559 641.948 167.484 642L63.1977 642C44.3108 642 29 626.673 29 607.767V34.2328C29 15.3265 44.3108 0 63.1977 0H306.802Z" fill="white"/>
</mask>
<g mask="url(#mask5_0_405)">
<path id="Rectangle-6-Copy-3" d="M33.6451 56.1799H29V59.2794H33.6451V56.1799Z" fill="url(#paint3_linear_0_405)"/>
</g>
</g>
<g id="Rectangle-6-Copy Clipped_2">
<mask id="mask6_0_405" style="mask-type:luminance" maskUnits="userSpaceOnUse" x="29" y="0" width="312" height="642">
<path id="path-16_9" fill-rule="evenodd" clip-rule="evenodd" d="M306.802 0C325.689 0 341 15.3265 341 34.2328V607.767C341 626.673 325.689 642 306.802 642L198.682 642C198.607 641.94 198.52 641.896 198.423 641.871V641.871L197.472 641.633C197.418 641.619 197.363 641.613 197.308 641.613V641.613H169.208C169.163 641.613 169.119 641.617 169.076 641.626V641.626L167.739 641.892C167.645 641.91 167.559 641.948 167.484 642L63.1977 642C44.3108 642 29 626.673 29 607.767V34.2328C29 15.3265 44.3108 0 63.1977 0H306.802Z" fill="white"/>
</mask>
<g mask="url(#mask6_0_405)">
<path id="Rectangle-6-Copy_2" d="M336.742 581.558H341.387V584.658H336.742V581.558Z" fill="url(#paint4_linear_0_405)"/>
</g>
</g>
<g id="Rectangle-6-Copy-2 Clipped">
<mask id="mask7_0_405" style="mask-type:luminance" maskUnits="userSpaceOnUse" x="29" y="0" width="312" height="642">
<path id="path-16_10" fill-rule="evenodd" clip-rule="evenodd" d="M306.802 0C325.689 0 341 15.3265 341 34.2328V607.767C341 626.673 325.689 642 306.802 642L198.682 642C198.607 641.94 198.52 641.896 198.423 641.871V641.871L197.472 641.633C197.418 641.619 197.363 641.613 197.308 641.613V641.613H169.208C169.163 641.613 169.119 641.617 169.076 641.626V641.626L167.739 641.892C167.645 641.91 167.559 641.948 167.484 642L63.1977 642C44.3108 642 29 626.673 29 607.767V34.2328C29 15.3265 44.3108 0 63.1977 0H306.802Z" fill="white"/>
</mask>
<g mask="url(#mask7_0_405)">
<path id="Rectangle-6-Copy-2" d="M33.6451 581.558H29V584.658H33.6451V581.558Z" fill="url(#paint5_linear_0_405)"/>
</g>
</g>
<g id="Rectangle-Copy Clipped">
<mask id="mask8_0_405" style="mask-type:luminance" maskUnits="userSpaceOnUse" x="29" y="0" width="312" height="642">
<path id="path-16_11" fill-rule="evenodd" clip-rule="evenodd" d="M306.802 0C325.689 0 341 15.3265 341 34.2328V607.767C341 626.673 325.689 642 306.802 642L198.682 642C198.607 641.94 198.52 641.896 198.423 641.871V641.871L197.472 641.633C197.418 641.619 197.363 641.613 197.308 641.613V641.613H169.208C169.163 641.613 169.119 641.617 169.076 641.626V641.626L167.739 641.892C167.645 641.91 167.559 641.948 167.484 642L63.1977 642C44.3108 642 29 626.673 29 607.767V34.2328C29 15.3265 44.3108 0 63.1977 0H306.802Z" fill="white"/>
</mask>
<g mask="url(#mask8_0_405)">
<rect id="Rectangle-Copy" x="32.871" y="3.29327" width="303.871" height="633.592" rx="94" fill="#2B2C2C"/>
</g>
</g>
<g id="Rectangle-Copy-2 Clipped">
<mask id="mask9_0_405" style="mask-type:luminance" maskUnits="userSpaceOnUse" x="29" y="0" width="312" height="642">
<path id="path-16_12" fill-rule="evenodd" clip-rule="evenodd" d="M306.802 0C325.689 0 341 15.3265 341 34.2328V607.767C341 626.673 325.689 642 306.802 642L198.682 642C198.607 641.94 198.52 641.896 198.423 641.871V641.871L197.472 641.633C197.418 641.619 197.363 641.613 197.308 641.613V641.613H169.208C169.163 641.613 169.119 641.617 169.076 641.626V641.626L167.739 641.892C167.645 641.91 167.559 641.948 167.484 642L63.1977 642C44.3108 642 29 626.673 29 607.767V34.2328C29 15.3265 44.3108 0 63.1977 0H306.802Z" fill="white"/>
</mask>
<g mask="url(#mask9_0_405)">
<path id="Rectangle-Copy-2" d="M293.184 5.90997C307.495 5.90997 312.685 7.39805 317.918 10.1991C323.142 12.9961 327.242 17.1005 330.036 22.3304C332.835 27.5679 334.321 32.7639 334.321 47.0892V47.0892V593.361C334.321 607.686 332.835 612.882 330.036 618.12C327.242 623.35 323.142 627.454 317.918 630.251C312.685 633.052 307.495 634.54 293.184 634.54V634.54H76.4287C62.1182 634.54 56.9274 633.052 51.6953 630.251C46.4708 627.454 42.3706 623.35 39.5765 618.12C36.7783 612.882 35.2917 607.686 35.2917 593.361V593.361V47.0892C35.2917 32.7639 36.7783 27.5679 39.5765 22.3304C42.3706 17.1005 46.4708 12.9961 51.6953 10.1991C56.9274 7.39805 62.1182 5.90997 76.4287 5.90997V5.90997H293.184Z" fill="#030303" stroke="#616464" stroke-width="0.58"/>
</g>
</g>
</g>
<g id="Group-4">
<path id="Path-2" d="M54.9102 13.6431C49.1497 16.8351 38.0386 24.5767 37 41.6602V602.59C37.9499 617.338 49.5689 627.531 55.4081 630.149C47.7737 623.351 42.2259 615.627 42.4009 602.59V41.6602C42.4009 30.6694 45.7912 21.1007 54.9102 13.6431Z" fill="url(#paint6_linear_0_405)"/>
<path id="Path-2-Copy" d="M315.09 13.6431C320.85 16.8351 331.961 24.5767 333 41.6602V602.59C332.05 617.338 320.431 627.531 314.592 630.149C322.226 623.351 327.774 615.627 327.599 602.59V41.6602C327.599 30.6694 324.209 21.1007 315.09 13.6431Z" fill="url(#paint7_linear_0_405)"/>
<path id="Rectangle-3" d="M53.6478 20.9706C53.6478 17.2209 63.73 9 71.2043 9H297.397C305.506 9 315.594 16.1867 315.594 23.0537V32.9411H53.6478C53.6478 27.4605 53.6478 23.4704 53.6478 20.9706Z" fill="url(#paint8_radial_0_405)"/>
<path id="Rectangle-3-Copy" d="M53.6478 623.029C53.6478 626.779 63.73 635 71.2043 635H297.397C305.506 635 315.594 627.813 315.594 620.946V611.059H53.6478C53.6478 616.539 53.6478 620.53 53.6478 623.029Z" fill="url(#paint9_radial_0_405)"/>
</g>
<g id="Group-3">
<rect id="Rectangle-4" x="166" y="22.6432" width="38.2679" height="4.04655" rx="2.02327" fill="#1E1E1F" stroke="#29292A" stroke-width="0.58"/>
<g id="Group-2">
<ellipse id="Oval-2-Copy" cx="215.109" cy="24.5" rx="4.8913" ry="4.5" fill="#161717"/>
<g id="Group_3">
<g id="Oval-2">
<path id="path-28" d="M215.206 27.4504C216.827 27.4504 218.141 26.2416 218.141 24.7504C218.141 23.2592 216.827 22.0504 215.206 22.0504C213.585 22.0504 212.271 23.2592 212.271 24.7504C212.271 26.2416 213.585 27.4504 215.206 27.4504Z" fill="#151B22" stroke="#090909" stroke-width="0.58"/>
</g>
<g id="Oval Clipped">
<mask id="mask10_0_405" style="mask-type:luminance" maskUnits="userSpaceOnUse" x="212" y="22" width="7" height="6">
<path id="path-28_2" fill-rule="evenodd" clip-rule="evenodd" d="M215.206 27.4504C216.827 27.4504 218.141 26.2416 218.141 24.7504C218.141 23.2592 216.827 22.0504 215.206 22.0504C213.585 22.0504 212.271 23.2592 212.271 24.7504C212.271 26.2416 213.585 27.4504 215.206 27.4504Z" fill="white"/>
</mask>
<g mask="url(#mask10_0_405)">
<path id="Oval" d="M211.84 23.3398C211.592 24.1902 211.953 25.018 212.647 25.189C213.34 25.3599 214.103 24.8091 214.35 23.9587C214.598 23.1084 214.237 22.2805 213.544 22.1096C212.85 21.9387 212.087 22.4895 211.84 23.3398Z" fill="#113586"/>
</g>
</g>
<g id="Oval-Copy Clipped">
<mask id="mask11_0_405" style="mask-type:luminance" maskUnits="userSpaceOnUse" x="212" y="22" width="7" height="6">
<path id="path-28_3" fill-rule="evenodd" clip-rule="evenodd" d="M215.206 27.4504C216.827 27.4504 218.141 26.2416 218.141 24.7504C218.141 23.2592 216.827 22.0504 215.206 22.0504C213.585 22.0504 212.271 23.2592 212.271 24.7504C212.271 26.2416 213.585 27.4504 215.206 27.4504Z" fill="white"/>
</mask>
<g mask="url(#mask11_0_405)">
<path id="Oval-Copy" d="M215.361 24.0598C215.114 24.9102 215.475 25.738 216.168 25.9089C216.862 26.0799 217.624 25.529 217.872 24.6787C218.12 23.8284 217.759 23.0005 217.065 22.8296C216.372 22.6587 215.609 23.2095 215.361 24.0598Z" fill="#113586"/>
</g>
</g>
</g>
</g>
</g>
<g id="Mask">
<path id="path-32" d="M45 600.954V42.9744C45.2019 42.2461 45.4884 41.5297 45.5904 40.7878C45.9498 38.1729 46.6365 35.655 47.7895 33.2855C51.567 25.5217 57.9757 21.295 66.2693 19.6581C67.7017 19.3755 69.1583 19.2163 70.6038 19H111.307C111.433 19.0933 111.546 19.2197 111.687 19.2749C113.815 20.1066 114.611 21.2211 114.656 23.4607C114.666 23.9532 114.656 24.4458 114.66 24.9384C114.709 31.1708 117.947 35.8368 123.768 38.0298C126.41 39.0249 129.156 39.3728 131.973 39.3718C167.365 39.3595 202.757 39.3639 238.148 39.3636C238.86 39.3636 239.572 39.3863 240.281 39.3497C243.26 39.1965 246.137 38.6135 248.794 37.1961C252.709 35.1077 255.183 31.9426 255.817 27.495C256.016 26.0951 256.012 24.6634 256.054 23.2448C256.1 21.7045 256.698 20.4825 258.033 19.6938C258.541 19.3939 259.127 19.2273 259.678 19H299.725C300.198 19.0956 300.669 19.1989 301.144 19.2851C303.122 19.644 305.149 19.8306 307.071 20.3816C317.182 23.2801 323.741 31.2102 324.726 41.5566C324.761 41.9251 324.906 42.2831 325 42.646V601.282C324.867 602.3 324.781 603.326 324.594 604.333C322.871 613.621 317.877 620.22 308.801 623.404C305.412 624.594 301.886 624.993 298.31 624.993C222.867 625 147.424 625 71.9806 625C71.6524 625 71.3238 625 70.9958 624.994C67.5359 624.866 64.1178 624.436 60.8714 623.181C51.9051 619.714 47.1328 612.95 45.6412 603.633C45.4965 602.729 45.217 601.846 45 600.954" fill="#5B5B5B"/>
</g>
<g id="change-this Clipped">
<mask id="mask12_0_405" style="mask-type:luminance" maskUnits="userSpaceOnUse" x="45" y="19" width="280" height="606">
<path id="path-32_2" fill-rule="evenodd" clip-rule="evenodd" d="M45 600.954V42.9744C45.2019 42.2461 45.4884 41.5297 45.5904 40.7878C45.9498 38.1729 46.6365 35.655 47.7895 33.2855C51.567 25.5217 57.9757 21.295 66.2693 19.6581C67.7017 19.3755 69.1583 19.2163 70.6038 19H111.307C111.433 19.0933 111.546 19.2197 111.687 19.2749C113.815 20.1066 114.611 21.2211 114.656 23.4607C114.666 23.9532 114.656 24.4458 114.66 24.9384C114.709 31.1708 117.947 35.8368 123.768 38.0298C126.41 39.0249 129.156 39.3728 131.973 39.3718C167.365 39.3595 202.757 39.3639 238.148 39.3636C238.86 39.3636 239.572 39.3863 240.281 39.3497C243.26 39.1965 246.137 38.6135 248.794 37.1961C252.709 35.1077 255.183 31.9426 255.817 27.495C256.016 26.0951 256.012 24.6634 256.054 23.2448C256.1 21.7045 256.698 20.4825 258.033 19.6938C258.541 19.3939 259.127 19.2273 259.678 19H299.725C300.198 19.0956 300.669 19.1989 301.144 19.2851C303.122 19.644 305.149 19.8306 307.071 20.3816C317.182 23.2801 323.741 31.2102 324.726 41.5566C324.761 41.9251 324.906 42.2831 325 42.646V601.282C324.867 602.3 324.781 603.326 324.594 604.333C322.871 613.621 317.877 620.22 308.801 623.404C305.412 624.594 301.886 624.993 298.31 624.993C222.867 625 147.424 625 71.9806 625C71.6524 625 71.3238 625 70.9958 624.994C67.5359 624.866 64.1178 624.436 60.8714 623.181C51.9051 619.714 47.1328 612.95 45.6412 603.633C45.4965 602.729 45.217 601.846 45 600.954" fill="white"/>
</mask>
<g mask="url(#mask12_0_405)">
<rect id="change-this" x="44.8939" y="18.9534" width="280.002" height="606" fill="#F0F0F3"/>
</g>
</g>
<g id="Group-41 Clipped">
<path id="path-32_3" fill-rule="evenodd" clip-rule="evenodd" d="M45 600.954V42.9744C45.2019 42.2461 45.4884 41.5297 45.5904 40.7878C45.9498 38.1729 46.6365 35.655 47.7895 33.2855C51.567 25.5217 57.9757 21.295 66.2693 19.6581C67.7017 19.3755 69.1583 19.2163 70.6038 19H111.307C111.433 19.0933 111.546 19.2197 111.687 19.2749C113.815 20.1066 114.611 21.2211 114.656 23.4607C114.666 23.9532 114.656 24.4458 114.66 24.9384C114.709 31.1708 117.947 35.8368 123.768 38.0298C126.41 39.0249 129.156 39.3728 131.973 39.3718C167.365 39.3595 202.757 39.3639 238.148 39.3636C238.86 39.3636 239.572 39.3863 240.281 39.3497C243.26 39.1965 246.137 38.6135 248.794 37.1961C252.709 35.1077 255.183 31.9426 255.817 27.495C256.016 26.0951 256.012 24.6634 256.054 23.2448C256.1 21.7045 256.698 20.4825 258.033 19.6938C258.541 19.3939 259.127 19.2273 259.678 19H299.725C300.198 19.0956 300.669 19.1989 301.144 19.2851C303.122 19.644 305.149 19.8306 307.071 20.3816C317.182 23.2801 323.741 31.2102 324.726 41.5566C324.761 41.9251 324.906 42.2831 325 42.646V601.282C324.867 602.3 324.781 603.326 324.594 604.333C322.871 613.621 317.877 620.22 308.801 623.404C305.412 624.594 301.886 624.993 298.31 624.993C222.867 625 147.424 625 71.9806 625C71.6524 625 71.3238 625 70.9958 624.994C67.5359 624.866 64.1178 624.436 60.8714 623.181C51.9051 619.714 47.1328 612.95 45.6412 603.633C45.4965 602.729 45.217 601.846 45 600.954" fill="#FCFAF9"/>
<mask id="mask13_0_405" style="mask-type:luminance" maskUnits="userSpaceOnUse" x="45" y="19" width="280" height="606">
<path id="path-32_4" fill-rule="evenodd" clip-rule="evenodd" d="M45 600.954V42.9744C45.2019 42.2461 45.4884 41.5297 45.5904 40.7878C45.9498 38.1729 46.6365 35.655 47.7895 33.2855C51.567 25.5217 57.9757 21.295 66.2693 19.6581C67.7017 19.3755 69.1583 19.2163 70.6038 19H111.307C111.433 19.0933 111.546 19.2197 111.687 19.2749C113.815 20.1066 114.611 21.2211 114.656 23.4607C114.666 23.9532 114.656 24.4458 114.66 24.9384C114.709 31.1708 117.947 35.8368 123.768 38.0298C126.41 39.0249 129.156 39.3728 131.973 39.3718C167.365 39.3595 202.757 39.3639 238.148 39.3636C238.86 39.3636 239.572 39.3863 240.281 39.3497C243.26 39.1965 246.137 38.6135 248.794 37.1961C252.709 35.1077 255.183 31.9426 255.817 27.495C256.016 26.0951 256.012 24.6634 256.054 23.2448C256.1 21.7045 256.698 20.4825 258.033 19.6938C258.541 19.3939 259.127 19.2273 259.678 19H299.725C300.198 19.0956 300.669 19.1989 301.144 19.2851C303.122 19.644 305.149 19.8306 307.071 20.3816C317.182 23.2801 323.741 31.2102 324.726 41.5566C324.761 41.9251 324.906 42.2831 325 42.646V601.282C324.867 602.3 324.781 603.326 324.594 604.333C322.871 613.621 317.877 620.22 308.801 623.404C305.412 624.594 301.886 624.993 298.31 624.993C222.867 625 147.424 625 71.9806 625C71.6524 625 71.3238 625 70.9958 624.994C67.5359 624.866 64.1178 624.436 60.8714 623.181C51.9051 619.714 47.1328 612.95 45.6412 603.633C45.4965 602.729 45.217 601.846 45 600.954" fill="white"/>
</mask>
<g mask="url(#mask13_0_405)">
</g>
<g id="Group_4" clip-path="url(#clip0_0_405)">
<rect id="Rectangle" x="77" y="541.5" width="216" height="46" rx="23" fill="#66E2DC"/>
<path id="APPLY SETTINGS" d="M134.881 569L134.181 566.676H130.919L130.219 569H128.063L131.283 559.228H133.915L137.093 569H134.881ZM132.571 561.16H132.501L131.423 564.87H133.663L132.571 561.16ZM138.305 569V559.228H142.925C143.382 559.228 143.793 559.307 144.157 559.466C144.521 559.615 144.829 559.825 145.081 560.096C145.342 560.367 145.543 560.698 145.683 561.09C145.823 561.473 145.893 561.893 145.893 562.35C145.893 562.817 145.823 563.241 145.683 563.624C145.543 564.007 145.342 564.333 145.081 564.604C144.829 564.875 144.521 565.089 144.157 565.248C143.793 565.397 143.382 565.472 142.925 565.472H140.433V569H138.305ZM140.433 563.624H142.673C142.99 563.624 143.238 563.545 143.415 563.386C143.602 563.218 143.695 562.975 143.695 562.658V562.042C143.695 561.725 143.602 561.487 143.415 561.328C143.238 561.16 142.99 561.076 142.673 561.076H140.433V563.624ZM147.353 569V559.228H151.973C152.43 559.228 152.841 559.307 153.205 559.466C153.569 559.615 153.877 559.825 154.129 560.096C154.39 560.367 154.591 560.698 154.731 561.09C154.871 561.473 154.941 561.893 154.941 562.35C154.941 562.817 154.871 563.241 154.731 563.624C154.591 564.007 154.39 564.333 154.129 564.604C153.877 564.875 153.569 565.089 153.205 565.248C152.841 565.397 152.43 565.472 151.973 565.472H149.481V569H147.353ZM149.481 563.624H151.721C152.038 563.624 152.285 563.545 152.463 563.386C152.649 563.218 152.743 562.975 152.743 562.658V562.042C152.743 561.725 152.649 561.487 152.463 561.328C152.285 561.16 152.038 561.076 151.721 561.076H149.481V563.624ZM156.4 569V559.228H158.528V567.11H162.252V569H156.4ZM164.834 569V565.178L161.488 559.228H163.868L165.968 563.12H165.996L168.012 559.228H170.322L166.976 565.164V569H164.834ZM177.724 569.168C176.865 569.168 176.137 569.023 175.54 568.734C174.943 568.435 174.434 568.053 174.014 567.586L175.414 566.172C176.077 566.919 176.893 567.292 177.864 567.292C178.387 567.292 178.774 567.185 179.026 566.97C179.278 566.755 179.404 566.471 179.404 566.116C179.404 565.845 179.329 565.621 179.18 565.444C179.031 565.257 178.727 565.131 178.27 565.066L177.304 564.94C176.268 564.809 175.507 564.497 175.022 564.002C174.546 563.507 174.308 562.849 174.308 562.028C174.308 561.589 174.392 561.188 174.56 560.824C174.728 560.46 174.966 560.147 175.274 559.886C175.591 559.625 175.974 559.424 176.422 559.284C176.879 559.135 177.397 559.06 177.976 559.06C178.713 559.06 179.362 559.177 179.922 559.41C180.482 559.643 180.963 559.984 181.364 560.432L179.95 561.86C179.717 561.589 179.432 561.37 179.096 561.202C178.769 561.025 178.354 560.936 177.85 560.936C177.374 560.936 177.019 561.02 176.786 561.188C176.553 561.356 176.436 561.589 176.436 561.888C176.436 562.224 176.525 562.467 176.702 562.616C176.889 562.765 177.187 562.873 177.598 562.938L178.564 563.092C179.572 563.251 180.319 563.563 180.804 564.03C181.289 564.487 181.532 565.141 181.532 565.99C181.532 566.457 181.448 566.886 181.28 567.278C181.112 567.67 180.865 568.006 180.538 568.286C180.221 568.566 179.824 568.785 179.348 568.944C178.872 569.093 178.331 569.168 177.724 569.168ZM183.156 569V559.228H189.806V561.118H185.284V563.12H189.162V564.996H185.284V567.11H189.806V569H183.156ZM195.594 561.118V569H193.466V561.118H190.82V559.228H198.24V561.118H195.594ZM203.835 561.118V569H201.707V561.118H199.061V559.228H206.481V561.118H203.835ZM207.364 569V567.306H208.624V560.922H207.364V559.228H212.012V560.922H210.752V567.306H212.012V569H207.364ZM216.627 564.38L215.689 562.42H215.647V569H213.645V559.228H215.969L218.643 563.848L219.581 565.808H219.623V559.228H221.625V569H219.301L216.627 564.38ZM229.838 567.446H229.768C229.693 567.941 229.441 568.351 229.012 568.678C228.583 569.005 227.999 569.168 227.262 569.168C226.702 569.168 226.179 569.061 225.694 568.846C225.209 568.631 224.784 568.314 224.42 567.894C224.056 567.474 223.771 566.951 223.566 566.326C223.361 565.701 223.258 564.977 223.258 564.156C223.258 563.335 223.365 562.607 223.58 561.972C223.795 561.337 224.093 560.805 224.476 560.376C224.868 559.947 225.335 559.62 225.876 559.396C226.417 559.172 227.019 559.06 227.682 559.06C228.559 559.06 229.315 559.251 229.95 559.634C230.585 560.007 231.084 560.572 231.448 561.328L229.712 562.322C229.563 561.939 229.329 561.617 229.012 561.356C228.695 561.085 228.251 560.95 227.682 560.95C227.019 560.95 226.492 561.141 226.1 561.524C225.708 561.907 225.512 562.509 225.512 563.33V564.898C225.512 565.71 225.708 566.312 226.1 566.704C226.492 567.087 227.019 567.278 227.682 567.278C227.943 567.278 228.191 567.25 228.424 567.194C228.657 567.129 228.863 567.035 229.04 566.914C229.217 566.783 229.353 566.629 229.446 566.452C229.549 566.275 229.6 566.065 229.6 565.822V565.332H227.78V563.554H231.63V569H229.838V567.446ZM236.723 569.168C235.864 569.168 235.136 569.023 234.539 568.734C233.941 568.435 233.433 568.053 233.013 567.586L234.413 566.172C235.075 566.919 235.892 567.292 236.863 567.292C237.385 567.292 237.773 567.185 238.025 566.97C238.277 566.755 238.403 566.471 238.403 566.116C238.403 565.845 238.328 565.621 238.179 565.444C238.029 565.257 237.726 565.131 237.269 565.066L236.303 564.94C235.267 564.809 234.506 564.497 234.021 564.002C233.545 563.507 233.307 562.849 233.307 562.028C233.307 561.589 233.391 561.188 233.559 560.824C233.727 560.46 233.965 560.147 234.273 559.886C234.59 559.625 234.973 559.424 235.421 559.284C235.878 559.135 236.396 559.06 236.975 559.06C237.712 559.06 238.361 559.177 238.921 559.41C239.481 559.643 239.961 559.984 240.363 560.432L238.949 561.86C238.715 561.589 238.431 561.37 238.095 561.202C237.768 561.025 237.353 560.936 236.849 560.936C236.373 560.936 236.018 561.02 235.785 561.188C235.551 561.356 235.435 561.589 235.435 561.888C235.435 562.224 235.523 562.467 235.701 562.616C235.887 562.765 236.186 562.873 236.597 562.938L237.563 563.092C238.571 563.251 239.317 563.563 239.803 564.03C240.288 564.487 240.531 565.141 240.531 565.99C240.531 566.457 240.447 566.886 240.279 567.278C240.111 567.67 239.863 568.006 239.537 568.286C239.219 568.566 238.823 568.785 238.347 568.944C237.871 569.093 237.329 569.168 236.723 569.168Z" fill="#191826"/>
</g>
<g id="Group 14">
<path id="TREBLE BOOST" d="M135.658 481.555V490H133.378V481.555H130.543V479.53H138.493V481.555H135.658ZM142.332 490H140.052V479.53H145.017C145.497 479.53 145.932 479.61 146.322 479.77C146.712 479.93 147.042 480.16 147.312 480.46C147.592 480.75 147.807 481.1 147.957 481.51C148.107 481.92 148.182 482.375 148.182 482.875C148.182 483.585 148.022 484.205 147.702 484.735C147.392 485.265 146.917 485.65 146.277 485.89L148.332 490H145.797L143.967 486.16H142.332V490ZM144.732 484.24C145.072 484.24 145.337 484.155 145.527 483.985C145.727 483.805 145.827 483.545 145.827 483.205V482.545C145.827 482.205 145.727 481.95 145.527 481.78C145.337 481.6 145.072 481.51 144.732 481.51H142.332V484.24H144.732ZM150.16 490V479.53H157.285V481.555H152.44V483.7H156.595V485.71H152.44V487.975H157.285V490H150.16ZM159.271 479.53H164.356C165.226 479.53 165.901 479.775 166.381 480.265C166.871 480.755 167.116 481.405 167.116 482.215C167.116 482.615 167.061 482.955 166.951 483.235C166.851 483.515 166.711 483.745 166.531 483.925C166.361 484.105 166.156 484.24 165.916 484.33C165.686 484.41 165.436 484.455 165.166 484.465V484.555C165.416 484.555 165.676 484.6 165.946 484.69C166.226 484.78 166.481 484.925 166.711 485.125C166.941 485.315 167.131 485.565 167.281 485.875C167.441 486.185 167.521 486.565 167.521 487.015C167.521 487.425 167.451 487.815 167.311 488.185C167.181 488.545 166.996 488.86 166.756 489.13C166.516 489.4 166.231 489.615 165.901 489.775C165.571 489.925 165.211 490 164.821 490H159.271V479.53ZM161.551 488.08H164.176C164.476 488.08 164.711 488 164.881 487.84C165.061 487.67 165.151 487.435 165.151 487.135V486.625C165.151 486.325 165.061 486.095 164.881 485.935C164.711 485.765 164.476 485.68 164.176 485.68H161.551V488.08ZM161.551 483.82H163.816C164.116 483.82 164.351 483.735 164.521 483.565C164.691 483.395 164.776 483.16 164.776 482.86V482.41C164.776 482.11 164.691 481.875 164.521 481.705C164.351 481.535 164.116 481.45 163.816 481.45H161.551V483.82ZM169.276 490V479.53H171.556V487.975H175.546V490H169.276ZM177.23 490V479.53H184.355V481.555H179.51V483.7H183.665V485.71H179.51V487.975H184.355V490H177.23ZM189.886 479.53H194.971C195.841 479.53 196.516 479.775 196.996 480.265C197.486 480.755 197.731 481.405 197.731 482.215C197.731 482.615 197.676 482.955 197.566 483.235C197.466 483.515 197.326 483.745 197.146 483.925C196.976 484.105 196.771 484.24 196.531 484.33C196.301 484.41 196.051 484.455 195.781 484.465V484.555C196.031 484.555 196.291 484.6 196.561 484.69C196.841 484.78 197.096 484.925 197.326 485.125C197.556 485.315 197.746 485.565 197.896 485.875C198.056 486.185 198.136 486.565 198.136 487.015C198.136 487.425 198.066 487.815 197.926 488.185C197.796 488.545 197.611 488.86 197.371 489.13C197.131 489.4 196.846 489.615 196.516 489.775C196.186 489.925 195.826 490 195.436 490H189.886V479.53ZM192.166 488.08H194.791C195.091 488.08 195.326 488 195.496 487.84C195.676 487.67 195.766 487.435 195.766 487.135V486.625C195.766 486.325 195.676 486.095 195.496 485.935C195.326 485.765 195.091 485.68 194.791 485.68H192.166V488.08ZM192.166 483.82H194.431C194.731 483.82 194.966 483.735 195.136 483.565C195.306 483.395 195.391 483.16 195.391 482.86V482.41C195.391 482.11 195.306 481.875 195.136 481.705C194.966 481.535 194.731 481.45 194.431 481.45H192.166V483.82ZM204.091 490.18C203.401 490.18 202.771 490.065 202.201 489.835C201.631 489.605 201.146 489.265 200.746 488.815C200.346 488.355 200.036 487.79 199.816 487.12C199.596 486.44 199.486 485.655 199.486 484.765C199.486 483.875 199.596 483.095 199.816 482.425C200.036 481.745 200.346 481.18 200.746 480.73C201.146 480.27 201.631 479.925 202.201 479.695C202.771 479.465 203.401 479.35 204.091 479.35C204.781 479.35 205.411 479.465 205.981 479.695C206.551 479.925 207.036 480.27 207.436 480.73C207.836 481.18 208.146 481.745 208.366 482.425C208.586 483.095 208.696 483.875 208.696 484.765C208.696 485.655 208.586 486.44 208.366 487.12C208.146 487.79 207.836 488.355 207.436 488.815C207.036 489.265 206.551 489.605 205.981 489.835C205.411 490.065 204.781 490.18 204.091 490.18ZM204.091 488.155C204.781 488.155 205.316 487.93 205.696 487.48C206.086 487.03 206.281 486.385 206.281 485.545V483.985C206.281 483.145 206.086 482.5 205.696 482.05C205.316 481.6 204.781 481.375 204.091 481.375C203.401 481.375 202.861 481.6 202.471 482.05C202.091 482.5 201.901 483.145 201.901 483.985V485.545C201.901 486.385 202.091 487.03 202.471 487.48C202.861 487.93 203.401 488.155 204.091 488.155ZM214.799 490.18C214.109 490.18 213.479 490.065 212.909 489.835C212.339 489.605 211.854 489.265 211.454 488.815C211.054 488.355 210.744 487.79 210.524 487.12C210.304 486.44 210.194 485.655 210.194 484.765C210.194 483.875 210.304 483.095 210.524 482.425C210.744 481.745 211.054 481.18 211.454 480.73C211.854 480.27 212.339 479.925 212.909 479.695C213.479 479.465 214.109 479.35 214.799 479.35C215.489 479.35 216.119 479.465 216.689 479.695C217.259 479.925 217.744 480.27 218.144 480.73C218.544 481.18 218.854 481.745 219.074 482.425C219.294 483.095 219.404 483.875 219.404 484.765C219.404 485.655 219.294 486.44 219.074 487.12C218.854 487.79 218.544 488.355 218.144 488.815C217.744 489.265 217.259 489.605 216.689 489.835C216.119 490.065 215.489 490.18 214.799 490.18ZM214.799 488.155C215.489 488.155 216.024 487.93 216.404 487.48C216.794 487.03 216.989 486.385 216.989 485.545V483.985C216.989 483.145 216.794 482.5 216.404 482.05C216.024 481.6 215.489 481.375 214.799 481.375C214.109 481.375 213.569 481.6 213.179 482.05C212.799 482.5 212.609 483.145 212.609 483.985V485.545C212.609 486.385 212.799 487.03 213.179 487.48C213.569 487.93 214.109 488.155 214.799 488.155ZM224.639 490.18C223.719 490.18 222.939 490.025 222.299 489.715C221.659 489.395 221.114 488.985 220.664 488.485L222.164 486.97C222.874 487.77 223.749 488.17 224.789 488.17C225.349 488.17 225.764 488.055 226.034 487.825C226.304 487.595 226.439 487.29 226.439 486.91C226.439 486.62 226.359 486.38 226.199 486.19C226.039 485.99 225.714 485.855 225.224 485.785L224.189 485.65C223.079 485.51 222.264 485.175 221.744 484.645C221.234 484.115 220.979 483.41 220.979 482.53C220.979 482.06 221.069 481.63 221.249 481.24C221.429 480.85 221.684 480.515 222.014 480.235C222.354 479.955 222.764 479.74 223.244 479.59C223.734 479.43 224.289 479.35 224.909 479.35C225.699 479.35 226.394 479.475 226.994 479.725C227.594 479.975 228.109 480.34 228.539 480.82L227.024 482.35C226.774 482.06 226.469 481.825 226.109 481.645C225.759 481.455 225.314 481.36 224.774 481.36C224.264 481.36 223.884 481.45 223.634 481.63C223.384 481.81 223.259 482.06 223.259 482.38C223.259 482.74 223.354 483 223.544 483.16C223.744 483.32 224.064 483.435 224.504 483.505L225.539 483.67C226.619 483.84 227.419 484.175 227.939 484.675C228.459 485.165 228.719 485.865 228.719 486.775C228.719 487.275 228.629 487.735 228.449 488.155C228.269 488.575 228.004 488.935 227.654 489.235C227.314 489.535 226.889 489.77 226.379 489.94C225.869 490.1 225.289 490.18 224.639 490.18ZM234.623 481.555V490H232.343V481.555H229.508V479.53H237.458V481.555H234.623Z" fill="#191826"/>
<path id="BASS BOOST" opacity="0.25" d="M277.155 479.53H282.24C283.11 479.53 283.785 479.775 284.265 480.265C284.755 480.755 285 481.405 285 482.215C285 482.615 284.945 482.955 284.835 483.235C284.735 483.515 284.595 483.745 284.415 483.925C284.245 484.105 284.04 484.24 283.8 484.33C283.57 484.41 283.32 484.455 283.05 484.465V484.555C283.3 484.555 283.56 484.6 283.83 484.69C284.11 484.78 284.365 484.925 284.595 485.125C284.825 485.315 285.015 485.565 285.165 485.875C285.325 486.185 285.405 486.565 285.405 487.015C285.405 487.425 285.335 487.815 285.195 488.185C285.065 488.545 284.88 488.86 284.64 489.13C284.4 489.4 284.115 489.615 283.785 489.775C283.455 489.925 283.095 490 282.705 490H277.155V479.53ZM279.435 488.08H282.06C282.36 488.08 282.595 488 282.765 487.84C282.945 487.67 283.035 487.435 283.035 487.135V486.625C283.035 486.325 282.945 486.095 282.765 485.935C282.595 485.765 282.36 485.68 282.06 485.68H279.435V488.08ZM279.435 483.82H281.7C282 483.82 282.235 483.735 282.405 483.565C282.575 483.395 282.66 483.16 282.66 482.86V482.41C282.66 482.11 282.575 481.875 282.405 481.705C282.235 481.535 282 481.45 281.7 481.45H279.435V483.82ZM293.39 490L292.64 487.51H289.145L288.395 490H286.085L289.535 479.53H292.355L295.76 490H293.39ZM290.915 481.6H290.84L289.685 485.575H292.085L290.915 481.6ZM300.599 490.18C299.679 490.18 298.899 490.025 298.259 489.715C297.619 489.395 297.074 488.985 296.624 488.485L298.124 486.97C298.834 487.77 299.709 488.17 300.749 488.17C301.309 488.17 301.724 488.055 301.994 487.825C302.264 487.595 302.399 487.29 302.399 486.91C302.399 486.62 302.319 486.38 302.159 486.19C301.999 485.99 301.674 485.855 301.184 485.785L300.149 485.65C299.039 485.51 298.224 485.175 297.704 484.645C297.194 484.115 296.939 483.41 296.939 482.53C296.939 482.06 297.029 481.63 297.209 481.24C297.389 480.85 297.644 480.515 297.974 480.235C298.314 479.955 298.724 479.74 299.204 479.59C299.694 479.43 300.249 479.35 300.869 479.35C301.659 479.35 302.354 479.475 302.954 479.725C303.554 479.975 304.069 480.34 304.499 480.82L302.984 482.35C302.734 482.06 302.429 481.825 302.069 481.645C301.719 481.455 301.274 481.36 300.734 481.36C300.224 481.36 299.844 481.45 299.594 481.63C299.344 481.81 299.219 482.06 299.219 482.38C299.219 482.74 299.314 483 299.504 483.16C299.704 483.32 300.024 483.435 300.464 483.505L301.499 483.67C302.579 483.84 303.379 484.175 303.899 484.675C304.419 485.165 304.679 485.865 304.679 486.775C304.679 487.275 304.589 487.735 304.409 488.155C304.229 488.575 303.964 488.935 303.614 489.235C303.274 489.535 302.849 489.77 302.339 489.94C301.829 490.1 301.249 490.18 300.599 490.18ZM309.754 490.18C308.834 490.18 308.054 490.025 307.414 489.715C306.774 489.395 306.229 488.985 305.779 488.485L307.279 486.97C307.989 487.77 308.864 488.17 309.904 488.17C310.464 488.17 310.879 488.055 311.149 487.825C311.419 487.595 311.554 487.29 311.554 486.91C311.554 486.62 311.474 486.38 311.314 486.19C311.154 485.99 310.829 485.855 310.339 485.785L309.304 485.65C308.194 485.51 307.379 485.175 306.859 484.645C306.349 484.115 306.094 483.41 306.094 482.53C306.094 482.06 306.184 481.63 306.364 481.24C306.544 480.85 306.799 480.515 307.129 480.235C307.469 479.955 307.879 479.74 308.359 479.59C308.849 479.43 309.404 479.35 310.024 479.35C310.814 479.35 311.509 479.475 312.109 479.725C312.709 479.975 313.224 480.34 313.654 480.82L312.139 482.35C311.889 482.06 311.584 481.825 311.224 481.645C310.874 481.455 310.429 481.36 309.889 481.36C309.379 481.36 308.999 481.45 308.749 481.63C308.499 481.81 308.374 482.06 308.374 482.38C308.374 482.74 308.469 483 308.659 483.16C308.859 483.32 309.179 483.435 309.619 483.505L310.654 483.67C311.734 483.84 312.534 484.175 313.054 484.675C313.574 485.165 313.834 485.865 313.834 486.775C313.834 487.275 313.744 487.735 313.564 488.155C313.384 488.575 313.119 488.935 312.769 489.235C312.429 489.535 312.004 489.77 311.494 489.94C310.984 490.1 310.404 490.18 309.754 490.18ZM319.269 479.53H324.354C325.224 479.53 325.899 479.775 326.379 480.265C326.869 480.755 327.114 481.405 327.114 482.215C327.114 482.615 327.059 482.955 326.949 483.235C326.849 483.515 326.709 483.745 326.529 483.925C326.359 484.105 326.154 484.24 325.914 484.33C325.684 484.41 325.434 484.455 325.164 484.465V484.555C325.414 484.555 325.674 484.6 325.944 484.69C326.224 484.78 326.479 484.925 326.709 485.125C326.939 485.315 327.129 485.565 327.279 485.875C327.439 486.185 327.519 486.565 327.519 487.015C327.519 487.425 327.449 487.815 327.309 488.185C327.179 488.545 326.994 488.86 326.754 489.13C326.514 489.4 326.229 489.615 325.899 489.775C325.569 489.925 325.209 490 324.819 490H319.269V479.53ZM321.549 488.08H324.174C324.474 488.08 324.709 488 324.879 487.84C325.059 487.67 325.149 487.435 325.149 487.135V486.625C325.149 486.325 325.059 486.095 324.879 485.935C324.709 485.765 324.474 485.68 324.174 485.68H321.549V488.08ZM321.549 483.82H323.814C324.114 483.82 324.349 483.735 324.519 483.565C324.689 483.395 324.774 483.16 324.774 482.86V482.41C324.774 482.11 324.689 481.875 324.519 481.705C324.349 481.535 324.114 481.45 323.814 481.45H321.549V483.82Z" fill="#191826"/>
<path id="BASS BOOST Copy" opacity="0.25" d="M45.0241 479.53H50.1091C50.9791 479.53 51.6541 479.775 52.1341 480.265C52.6241 480.755 52.8691 481.405 52.8691 482.215C52.8691 482.615 52.8141 482.955 52.7041 483.235C52.6041 483.515 52.4641 483.745 52.2841 483.925C52.1141 484.105 51.9091 484.24 51.6691 484.33C51.4391 484.41 51.1891 484.455 50.9191 484.465V484.555C51.1691 484.555 51.4291 484.6 51.6991 484.69C51.9791 484.78 52.2341 484.925 52.4641 485.125C52.6941 485.315 52.8841 485.565 53.0341 485.875C53.1941 486.185 53.2741 486.565 53.2741 487.015C53.2741 487.425 53.2041 487.815 53.0641 488.185C52.9341 488.545 52.7491 488.86 52.5091 489.13C52.2691 489.4 51.9841 489.615 51.6541 489.775C51.3241 489.925 50.9641 490 50.5741 490H45.0241V479.53ZM47.3041 488.08H49.9291C50.2291 488.08 50.4641 488 50.6341 487.84C50.8141 487.67 50.9041 487.435 50.9041 487.135V486.625C50.9041 486.325 50.8141 486.095 50.6341 485.935C50.4641 485.765 50.2291 485.68 49.9291 485.68H47.3041V488.08ZM47.3041 483.82H49.5691C49.8691 483.82 50.1041 483.735 50.2741 483.565C50.4441 483.395 50.5291 483.16 50.5291 482.86V482.41C50.5291 482.11 50.4441 481.875 50.2741 481.705C50.1041 481.535 49.8691 481.45 49.5691 481.45H47.3041V483.82ZM59.229 490.18C58.539 490.18 57.909 490.065 57.339 489.835C56.769 489.605 56.284 489.265 55.884 488.815C55.484 488.355 55.174 487.79 54.954 487.12C54.734 486.44 54.624 485.655 54.624 484.765C54.624 483.875 54.734 483.095 54.954 482.425C55.174 481.745 55.484 481.18 55.884 480.73C56.284 480.27 56.769 479.925 57.339 479.695C57.909 479.465 58.539 479.35 59.229 479.35C59.919 479.35 60.549 479.465 61.119 479.695C61.689 479.925 62.174 480.27 62.574 480.73C62.974 481.18 63.284 481.745 63.504 482.425C63.724 483.095 63.834 483.875 63.834 484.765C63.834 485.655 63.724 486.44 63.504 487.12C63.284 487.79 62.974 488.355 62.574 488.815C62.174 489.265 61.689 489.605 61.119 489.835C60.549 490.065 59.919 490.18 59.229 490.18ZM59.229 488.155C59.919 488.155 60.454 487.93 60.834 487.48C61.224 487.03 61.419 486.385 61.419 485.545V483.985C61.419 483.145 61.224 482.5 60.834 482.05C60.454 481.6 59.919 481.375 59.229 481.375C58.539 481.375 57.999 481.6 57.609 482.05C57.229 482.5 57.039 483.145 57.039 483.985V485.545C57.039 486.385 57.229 487.03 57.609 487.48C57.999 487.93 58.539 488.155 59.229 488.155ZM69.937 490.18C69.247 490.18 68.617 490.065 68.047 489.835C67.477 489.605 66.992 489.265 66.592 488.815C66.192 488.355 65.882 487.79 65.662 487.12C65.442 486.44 65.332 485.655 65.332 484.765C65.332 483.875 65.442 483.095 65.662 482.425C65.882 481.745 66.192 481.18 66.592 480.73C66.992 480.27 67.477 479.925 68.047 479.695C68.617 479.465 69.247 479.35 69.937 479.35C70.627 479.35 71.257 479.465 71.827 479.695C72.397 479.925 72.882 480.27 73.282 480.73C73.682 481.18 73.992 481.745 74.212 482.425C74.432 483.095 74.542 483.875 74.542 484.765C74.542 485.655 74.432 486.44 74.212 487.12C73.992 487.79 73.682 488.355 73.282 488.815C72.882 489.265 72.397 489.605 71.827 489.835C71.257 490.065 70.627 490.18 69.937 490.18ZM69.937 488.155C70.627 488.155 71.162 487.93 71.542 487.48C71.932 487.03 72.127 486.385 72.127 485.545V483.985C72.127 483.145 71.932 482.5 71.542 482.05C71.162 481.6 70.627 481.375 69.937 481.375C69.247 481.375 68.707 481.6 68.317 482.05C67.937 482.5 67.747 483.145 67.747 483.985V485.545C67.747 486.385 67.937 487.03 68.317 487.48C68.707 487.93 69.247 488.155 69.937 488.155ZM79.7764 490.18C78.8564 490.18 78.0764 490.025 77.4364 489.715C76.7964 489.395 76.2514 488.985 75.8014 488.485L77.3014 486.97C78.0114 487.77 78.8864 488.17 79.9264 488.17C80.4864 488.17 80.9014 488.055 81.1714 487.825C81.4414 487.595 81.5764 487.29 81.5764 486.91C81.5764 486.62 81.4964 486.38 81.3364 486.19C81.1764 485.99 80.8514 485.855 80.3614 485.785L79.3264 485.65C78.2164 485.51 77.4014 485.175 76.8814 484.645C76.3714 484.115 76.1164 483.41 76.1164 482.53C76.1164 482.06 76.2064 481.63 76.3864 481.24C76.5664 480.85 76.8214 480.515 77.1514 480.235C77.4914 479.955 77.9014 479.74 78.3814 479.59C78.8714 479.43 79.4264 479.35 80.0464 479.35C80.8364 479.35 81.5314 479.475 82.1314 479.725C82.7314 479.975 83.2464 480.34 83.6764 480.82L82.1614 482.35C81.9114 482.06 81.6064 481.825 81.2464 481.645C80.8964 481.455 80.4514 481.36 79.9114 481.36C79.4014 481.36 79.0214 481.45 78.7714 481.63C78.5214 481.81 78.3964 482.06 78.3964 482.38C78.3964 482.74 78.4914 483 78.6814 483.16C78.8814 483.32 79.2014 483.435 79.6414 483.505L80.6764 483.67C81.7564 483.84 82.5564 484.175 83.0764 484.675C83.5964 485.165 83.8564 485.865 83.8564 486.775C83.8564 487.275 83.7664 487.735 83.5864 488.155C83.4064 488.575 83.1414 488.935 82.7914 489.235C82.4514 489.535 82.0264 489.77 81.5164 489.94C81.0064 490.1 80.4264 490.18 79.7764 490.18ZM89.7602 481.555V490H87.4802V481.555H84.6452V479.53H92.5952V481.555H89.7602Z" fill="#191826"/>
<g id="Group 13">
<g id="Group 12" clip-path="url(#clip1_0_405)">
<path id="dB" opacity="0.5" d="M181.475 400.74H181.415C180.945 401.7 180.19 402.18 179.15 402.18C178.67 402.18 178.235 402.085 177.845 401.895C177.455 401.705 177.12 401.435 176.84 401.085C176.57 400.735 176.36 400.31 176.21 399.81C176.07 399.31 176 398.75 176 398.13C176 397.51 176.07 396.95 176.21 396.45C176.36 395.95 176.57 395.525 176.84 395.175C177.12 394.825 177.455 394.555 177.845 394.365C178.235 394.175 178.67 394.08 179.15 394.08C179.69 394.08 180.15 394.2 180.53 394.44C180.92 394.67 181.215 395.03 181.415 395.52H181.475V390.9H182.675V402H181.475V400.74ZM179.48 401.1C179.75 401.1 180.005 401.065 180.245 400.995C180.495 400.925 180.71 400.825 180.89 400.695C181.07 400.555 181.21 400.39 181.31 400.2C181.42 400 181.475 399.775 181.475 399.525V396.645C181.475 396.435 181.42 396.24 181.31 396.06C181.21 395.87 181.07 395.71 180.89 395.58C180.71 395.45 180.495 395.35 180.245 395.28C180.005 395.2 179.75 395.16 179.48 395.16C178.8 395.16 178.265 395.375 177.875 395.805C177.485 396.225 177.29 396.78 177.29 397.47V398.79C177.29 399.48 177.485 400.04 177.875 400.47C178.265 400.89 178.8 401.1 179.48 401.1ZM185.346 391.53H189.651C190.521 391.53 191.201 391.775 191.691 392.265C192.191 392.755 192.441 393.41 192.441 394.23C192.441 394.62 192.386 394.95 192.276 395.22C192.166 395.49 192.026 395.715 191.856 395.895C191.686 396.065 191.501 396.195 191.301 396.285C191.101 396.365 190.916 396.42 190.746 396.45V396.54C190.936 396.55 191.146 396.6 191.376 396.69C191.616 396.78 191.841 396.925 192.051 397.125C192.261 397.315 192.436 397.565 192.576 397.875C192.726 398.175 192.801 398.54 192.801 398.97C192.801 399.4 192.731 399.8 192.591 400.17C192.461 400.54 192.276 400.86 192.036 401.13C191.796 401.4 191.511 401.615 191.181 401.775C190.851 401.925 190.491 402 190.101 402H185.346V391.53ZM186.606 400.89H189.711C190.251 400.89 190.676 400.755 190.986 400.485C191.296 400.205 191.451 399.8 191.451 399.27V398.76C191.451 398.23 191.296 397.83 190.986 397.56C190.676 397.28 190.251 397.14 189.711 397.14H186.606V400.89ZM186.606 396.06H189.501C190.001 396.06 190.391 395.935 190.671 395.685C190.951 395.435 191.091 395.075 191.091 394.605V394.095C191.091 393.625 190.951 393.265 190.671 393.015C190.391 392.765 190.001 392.64 189.501 392.64H186.606V396.06Z" fill="#191826"/>
<path id="10" d="M157.504 376V369.224H168.032V343.016H167.528L159.576 353.432L154.2 349.232L163.552 336.912H176.432V369.224H184.72V376H157.504ZM201.982 376.672C196.867 376.672 193.078 374.899 190.614 371.352C188.15 367.805 186.918 362.84 186.918 356.456C186.918 350.072 188.15 345.107 190.614 341.56C193.078 338.013 196.867 336.24 201.982 336.24C207.096 336.24 210.886 338.013 213.35 341.56C215.814 345.107 217.046 350.072 217.046 356.456C217.046 362.84 215.814 367.805 213.35 371.352C210.886 374.899 207.096 376.672 201.982 376.672ZM201.982 369.56C204.222 369.56 205.771 368.739 206.63 367.096C207.488 365.453 207.918 363.139 207.918 360.152V352.76C207.918 349.773 207.488 347.459 206.63 345.816C205.771 344.173 204.222 343.352 201.982 343.352C199.742 343.352 198.192 344.173 197.334 345.816C196.475 347.459 196.046 349.773 196.046 352.76V360.152C196.046 363.139 196.475 365.453 197.334 367.096C198.192 368.739 199.742 369.56 201.982 369.56Z" fill="#191826"/>
</g>
<rect id="Rectangle Copy 3" x="117" y="297" width="136" height="136" rx="68" stroke="#191826" stroke-width="2"/>
<path id="Rectangle Copy 11" d="M185 301C220.346 301 249 329.654 249 365C249 400.346 220.346 429 185 429C156.823 429 132.204 410.625 123.913 384.155L116.279 386.546C125.346 415.493 152.197 436.575 184.034 436.994L185 437C224.367 437 256.354 405.406 256.99 366.191L257 365L256.99 363.809C256.361 324.986 225.003 293.633 186.179 293.009L185 293V301Z" fill="#66E2DC"/>
</g>
</g>
<g id="Group 11">
<path id="eq." fill-rule="evenodd" clip-rule="evenodd" d="M170.464 90.384C171.851 90.384 173.085 90.224 174.168 89.904C175.251 89.584 176.171 89.1493 176.928 88.6C177.685 88.0507 178.277 87.432 178.704 86.744C179.131 86.056 179.376 85.3547 179.44 84.64H174.544C174.512 84.864 174.416 85.0933 174.256 85.328C174.096 85.5627 173.864 85.776 173.56 85.968C173.256 86.16 172.864 86.3173 172.384 86.44C171.904 86.5627 171.333 86.624 170.672 86.624C169.648 86.624 168.792 86.416 168.104 86C167.416 85.584 166.899 84.9893 166.552 84.216C166.398 83.8723 166.278 83.4975 166.193 83.0916L166.173 82.992H179.616C179.633 82.8981 179.647 82.7633 179.657 82.5875L179.664 82.448C179.675 82.2027 179.68 81.9467 179.68 81.68C179.68 79.888 179.307 78.3173 178.56 76.968C177.813 75.6187 176.752 74.568 175.376 73.816C174 73.064 172.368 72.688 170.48 72.688C168.635 72.688 167.011 73.0587 165.608 73.8C164.205 74.5413 163.112 75.576 162.328 76.904C161.544 78.232 161.152 79.776 161.152 81.536C161.152 83.2747 161.536 84.808 162.304 86.136C163.072 87.464 164.155 88.504 165.552 89.256C166.949 90.008 168.587 90.384 170.464 90.384ZM174.605 79.712H166.221L166.27 79.5182C166.323 79.3294 166.385 79.1482 166.456 78.9746L166.568 78.72C166.925 77.9733 167.443 77.4 168.12 77C168.797 76.6 169.605 76.4 170.544 76.4C171.483 76.4 172.253 76.5787 172.856 76.936C173.459 77.2933 173.904 77.752 174.192 78.312C174.398 78.712 174.53 79.1242 174.589 79.5487L174.605 79.712ZM199.636 73.008V96.992H194.66L194.659 88.008L194.438 88.2441C194.053 88.6356 193.628 88.9835 193.164 89.288C192.049 90.0187 190.804 90.384 189.428 90.384C188.009 90.384 186.702 90.0453 185.508 89.368C184.313 88.6907 183.353 87.6853 182.628 86.352C181.902 85.0187 181.54 83.376 181.54 81.424C181.54 79.5573 181.91 77.9733 182.652 76.672C183.393 75.3707 184.364 74.3813 185.564 73.704C186.764 73.0267 188.052 72.688 189.428 72.688C190.772 72.688 192.001 73.0293 193.116 73.712L193.39 73.8878C193.839 74.1895 194.249 74.5342 194.622 74.922L194.659 74.963L194.66 73.008H199.636ZM190.692 86.08C189.604 86.08 188.657 85.704 187.852 84.952C187.046 84.2 186.644 83.024 186.644 81.424C186.644 79.824 187.044 78.6587 187.844 77.928C188.644 77.1973 189.593 76.832 190.692 76.832C191.353 76.832 191.988 76.9893 192.596 77.304C193.204 77.6187 193.7 78.064 194.084 78.64C194.468 79.216 194.66 79.904 194.66 80.704V80.912V82.096C194.66 82.9067 194.473 83.6107 194.1 84.208C193.726 84.8053 193.236 85.2667 192.628 85.592C192.02 85.9173 191.374 86.08 190.692 86.08ZM207.575 89.712C207.063 90.224 206.445 90.48 205.719 90.48C204.983 90.48 204.359 90.224 203.847 89.712C203.335 89.2 203.079 88.576 203.079 87.84C203.079 87.1147 203.335 86.496 203.847 85.984C204.359 85.472 204.983 85.216 205.719 85.216C206.445 85.216 207.063 85.472 207.575 85.984C208.087 86.496 208.343 87.1147 208.343 87.84C208.343 88.576 208.087 89.2 207.575 89.712Z" fill="#191826"/>
<g id="Group 10">
<rect id="Rectangle_2" x="277" y="76" width="24" height="2" fill="#191826"/>
<rect id="Rectangle Copy 9" x="277" y="82" width="24" height="2" fill="#191826"/>
<rect id="Rectangle Copy 10" x="277" y="88" width="24" height="2" fill="#191826"/>
</g>
<g id="testeee">
<rect class="Rectangle" x="113.959" y="185.688" width="2" height="61" fill="#191826"/>
<rect class="Rectangle" x="123.959" y="179.688" width="2" height="67" fill="#191826"/>
<rect class="Rectangle" x="133.959" y="165.688" width="2" height="81" fill="#191826"/>
<rect class="Rectangle" x="143.959" y="182.688" width="2" height="64" fill="#191826"/>
<rect class="Rectangle" x="153.959" y="190.688" width="2" height="56" fill="#191826"/>
<rect class="Rectangle" x="163.959" y="190.688" width="2" height="56" fill="#191826"/>
<rect class="Rectangle" x="173.959" y="190.688" width="2" height="56" fill="#191826"/>
<rect class="Rectangle" x="183.959" y="190.688" width="2" height="56" fill="#191826"/>
<rect class="Rectangle " x="193.959" y="190.688" width="2" height="56" fill="#191826"/>
<rect class="Rectangle" x="203.959" y="190.688" width="2" height="56" fill="#191826"/>
<rect class="Rectangle" x="213.959" y="194.688" width="2" height="52" fill="#191826"/>
<rect class="Rectangle" x="223.959" y="181.688" width="2" height="65" fill="#191826"/>
<rect class="Rectangle" x="233.959" y="159.688" width="2" height="87" fill="#191826"/>
<rect class="Rectangle" x="243.959" y="146.688" width="2" height="100" fill="#191826"/>
<circle id="Oval_2" cx="245" cy="145" r="5" fill="#66E2DC"/>
<rect id="Rectangle Copy 23" x="253.959" y="154.688" width="2" height="92" fill="#191826"/>
</g>
<path id="Path 4" d="M78.2715 72.688L68.9595 82L78.2715 91.312" stroke="#191826" stroke-width="2"/>
</g>
</g>
</g>
<defs>
<linearGradient id="paint0_linear_0_405" x1="92.484" y1="641.612" x2="92.484" y2="636.963" gradientUnits="userSpaceOnUse">
<stop stop-color="#354640"/>
<stop offset="1" stop-color="#354640" stop-opacity="0.426054"/>
</linearGradient>
<linearGradient id="paint1_linear_0_405" x1="341.387" y1="56.1799" x2="336.742" y2="56.1799" gradientUnits="userSpaceOnUse">
<stop stop-color="#354640"/>
<stop offset="1" stop-color="#354640" stop-opacity="0.426054"/>
</linearGradient>
<linearGradient id="paint2_linear_0_405" x1="285.645" y1="0.000154495" x2="285.645" y2="4.64923" gradientUnits="userSpaceOnUse">
<stop stop-color="#354640"/>
<stop offset="1" stop-color="#354640" stop-opacity="0.426054"/>
</linearGradient>
<linearGradient id="paint3_linear_0_405" x1="29" y1="56.1799" x2="33.6451" y2="56.1799" gradientUnits="userSpaceOnUse">
<stop stop-color="#354640"/>
<stop offset="1" stop-color="#354640" stop-opacity="0.426054"/>
</linearGradient>
<linearGradient id="paint4_linear_0_405" x1="341.387" y1="581.558" x2="336.742" y2="581.558" gradientUnits="userSpaceOnUse">
<stop stop-color="#354640"/>
<stop offset="1" stop-color="#354640" stop-opacity="0.426054"/>
</linearGradient>
<linearGradient id="paint5_linear_0_405" x1="29" y1="581.558" x2="33.6451" y2="581.558" gradientUnits="userSpaceOnUse">
<stop stop-color="#354640"/>
<stop offset="1" stop-color="#354640" stop-opacity="0.426054"/>
</linearGradient>
<linearGradient id="paint6_linear_0_405" x1="42.4875" y1="230.005" x2="37" y2="230.005" gradientUnits="userSpaceOnUse">
<stop stop-color="#3A3A3A"/>
<stop offset="1" stop-color="#B8B8B8"/>
</linearGradient>
<linearGradient id="paint7_linear_0_405" x1="327.512" y1="230.005" x2="333" y2="230.005" gradientUnits="userSpaceOnUse">
<stop stop-color="#3A3A3A"/>
<stop offset="1" stop-color="#B8B8B8"/>
</linearGradient>
<radialGradient id="paint8_radial_0_405" cx="0" cy="0" r="1" gradientUnits="userSpaceOnUse" gradientTransform="translate(184.621 9) rotate(90) scale(23.9411 261.946)">
<stop stop-color="#EEEEEE" stop-opacity="0.163638"/>
<stop offset="1" stop-opacity="0.01"/>
</radialGradient>
<radialGradient id="paint9_radial_0_405" cx="0" cy="0" r="1" gradientUnits="userSpaceOnUse" gradientTransform="translate(184.621 635) rotate(-90) scale(23.9411 261.946)">
<stop stop-color="#EEEEEE" stop-opacity="0.163638"/>
<stop offset="1" stop-opacity="0.01"/>
</radialGradient>
<clipPath id="clip0_0_405">
<rect width="216" height="46" fill="white" transform="translate(77 541.5)"/>
</clipPath>
<clipPath id="clip1_0_405">
<rect width="66" height="102" fill="white" transform="translate(152 311)"/>
</clipPath>
</defs>
</svg>
